<mxfile host="app.diagrams.net" modified="2021-03-01T18:16:06.683Z" agent="5.0 (Macintosh; Intel Mac OS X 10_15_7) AppleWebKit/537.36 (KHTML, like Gecko) Chrome/88.0.4324.192 Safari/537.36" etag="sqdthJ_4napxOOekqMpn" version="14.3.2" type="github">
  <diagram id="wRoHlOJkbxAqt7MTuhSB" name="Page-1">
    <mxGraphModel dx="1426" dy="857" grid="1" gridSize="10" guides="1" tooltips="1" connect="1" arrows="1" fold="1" page="1" pageScale="1" pageWidth="827" pageHeight="1169" math="0" shadow="0">
      <root>
        <mxCell id="0" />
        <mxCell id="1" parent="0" />
        <mxCell id="kRuqPWWYnygIAu690phn-7" value="" style="rounded=1;whiteSpace=wrap;html=1;fontFamily=Verdana;fontSize=13;fontColor=#3399FF;" vertex="1" parent="1">
          <mxGeometry x="150.78" y="90" width="220" height="420" as="geometry" />
        </mxCell>
        <mxCell id="kRuqPWWYnygIAu690phn-2" value="" style="rounded=0;whiteSpace=wrap;html=1;" vertex="1" parent="1">
          <mxGeometry x="200" y="170" width="120" height="300" as="geometry" />
        </mxCell>
        <mxCell id="kRuqPWWYnygIAu690phn-3" value="Stack de tecnologias" style="text;html=1;align=center;verticalAlign=middle;resizable=0;points=[];autosize=1;fontFamily=Verdana;fontSize=13;fontStyle=1;fontColor=#3399FF;" vertex="1" parent="1">
          <mxGeometry x="175" y="120" width="170" height="20" as="geometry" />
        </mxCell>
        <mxCell id="kRuqPWWYnygIAu690phn-4" value="" style="shape=image;verticalLabelPosition=bottom;labelBackgroundColor=#ffffff;verticalAlign=top;aspect=fixed;imageAspect=0;image=data:image/jpeg,/9j/4AAQSkZJRgABAQAAAQABAAD/2wCEAAkGBxEPEBEQEBEVFRUQFRUXEBYVFxIVGBYVFhUWGBYWFxkZHiggGBomGxUVITEiJSkrLi4uFx8zODMtNygtLisBCgoKDg0OGhAQGy0lICUtLS0tLS0vLS0tLS0tLS0tLS8tLS0tLS0tLS0tLS0tLS0tLS0tLS0tLS0tLS0tLS0tLf/AABEIAOEA4QMBEQACEQEDEQH/xAAcAAEAAgMBAQEAAAAAAAAAAAAAAgcBBQYDBAj/xABEEAABAwICBwMJBgMGBwAAAAABAAIDBBEFMQYHEiFBUWFxgbETIjJCUmKRocEUI3KCktEzQ1MXdKKys8IVFiQ0RGPD/8QAGwEBAAIDAQEAAAAAAAAAAAAAAAEEAgMFBgf/xAA4EQACAQMCAwUGBQQCAwEAAAAAAQIDBBEhMQUSQRMiUWFxBjKBkbHRFEKhweEVIzPwUvEkYnJD/9oADAMBAAIRAxEAPwC8UAQBAEAQBAEAQGqx7SGnoWh0z959Fg3ud2Dl1WcKcp7F6y4fXu5YprTq+iOKn1om52KYW4bTyD8grKtfM9FD2WWO9U18kRj1pOv51M23R5/ZPwvmTL2Wj0qP5G/wjWBSTkNeTC4+36P6uHetUrea21OXdez91RWY95eW/wAjrGOBAINwciN4K0HDaaeGZQgIAgCAIAgCAIAgCAIAgCAIAgCAIAgCAIAgCAIDUaTY9HQwmR+9x3Rt4ud+y2U6bm8F/h9hO8qqEdur8EUhieISVMrppXbTnnf0HADkAujGKisI+j29vToU1TprCR8qyN5FzwMyApSbMJVIx3eDzNUzn4rLs5Gh3dJdTptENOnULgx5c+E5tzLerL5di01bXn16nD4pa293HmgsT8fH1O0brUoeLJh+Vv7qv+CqeR57+j1/FH0w6zcOcd75G/ijP+26xdnVMXwi5XRfM21Hphh83oVcX5z5P/PZa5UKi3RXnYXMN4P4a/Q3ccjXC7SCDkQQR8lpwVGmtGSQgIAgCAIAgCAIAgCAIAgCAIAgCAIAgNPpFpHBQs2pHXcfQjHpOP0HUrZTpym9C/YcOrXk8QWnV9F/vgUvj+NS1kpmmP4W+qxvILoU6aisI+g2lpSs6XJDbq/H1NJLXNHo7/BWI0m9zXV4jCOkNfofK+pe7jbsW1U4ooTu6s+uPQ81kaTIUGaRIIZJEgFBmkZAUGSRIKDJI+ugxGanN4ZXxn3XEA9oyPesJQjLdGNShTqLE4pnYYPrNq4rCcNmbxJ813xG75KtO0g/d0OXX4JRnrDuv5o73AdPaKrs3b8lIfUk3XPuuyPyPRVKltOHmcW54TcUdcZXivtudQCq5zDKAIAgCAIAgCAIAgCAIAgOd0g0xpaI7DiXycWMsSPxE7h4rbCjKZ1rHg1zdrmisR8X+xytTrRf/Lpmj8TifABb1arqzt0/ZeP56j+CNPiGsGtlBDXNjB9gb/iVsjbwRfoez9pTeWnL1OPxDESXFz3F7zncknvKtU6Wdti9VuaVtHkivgjUyzufme7grUYKOxyKtxOq+8/gRCk1pHqyBxyaVg5pFiNvVksqLBaRmEymQ4SjugEJRIKDNEgFBmkSCgySMgIZpErKDJIzZCcGbKCcHS6O6a1VFZod5SMeo8ki3unMLRUt4T9Tn3fC6Fxq1h+KLX0a0upq8WYdiT1o322vy+0Fz6tCVPfY8recNrWrzLVeK/3Q6BaTnhAEAQBAEAQBAEAQHN6e426jpCYzaSU7EZ5X3ud3AHvIW6hDmlqdfgtkrq5Sn7sdX+y+ZSj3lxJJJJ3kneSV0T6KkksIwhJ8FZW281mfE8uxb6dLOrOTeX/L3Ke/VmvVg42cvLJxMLiAOKxk8LJupU3Ukoo20NM1vU81VlNyPQUbWFJaavxPZYFkwQhDSe54vp2nhbsWamytO1pvpg8HwWyK2KeSpO35dmedlJqwSCGSJAKDNIyAoMkiSGWDNlBOBZCcE4ZXMcHNJa5puCDYg9EazozGUFJYa0LO0L1hbRbT1psTuZNwJ5P5dqoVrbHeh8jzHEuC8ualD4x+32LIBvvHHJUjzRlAEAQBAEAQBAEBXGt+TdTN/GfAK3a9T13stHWpL0K2Vw9ea/EKu3mNz9Y8uisUqedWcfiF7y/2qe/VmtCsHFRMKDNH00DrPHXctVVd0v2ElGssm2VU9AYJQjJB0llkka5VEjwfOs1AqTuPA8S+6zwVnNsBAiQUGaJBQZokAhkke8lJI1oe6NwacnFrgD2E5rDmT0yI1ISfKms+p5WUmzBmyE4FkGDFlJjg73QHTd0Dm01S68Tt0bznGeAPNvgqde3T70dzz/FeEqonVpLvdV4/yW21wIuMjkueeQawZQBAEAQBAEAQFa6386bsf9Fctep7D2W2qfAq6vqdhth6Ry6dV0KUOZ67Hdv7vsYYj7z/ANyadXDze5IKDJEgoNiJtUM2ReHlGzhqQ5u/MZqrKGGd2jdKcMvfqQkqFkoGupc+B4OkJWaRTlUcjCkgyFBkiYUGxEgoM0SCgzRuNFBF9sp/L22NsbV8ul+l7LVWzyPBXvuf8PPs98F36SNh+xzeW2fJ+Tdna17ebbre1lyqeeZYPD2Tq/iI9nnOT8+2XXPpCRmyGWBZCMESFJi0YKkwZZ2rHS0utQzu/u7j/pn6fDkqNzR/PH4nluNcOS/8imv/AKX7/cstUTzIQBAEAQBAedRO2NjnvcGtYLuJ3AAKUsvCM4QlUkoxWWykNONIxWzmQbo4gWx3zI4k9pXSoUnFY6s+hcNs48Ptm577v7HAzyl7i48fBdSMeVYOLXrSrTc2RCkxRIKDNEgoM0SCgzRIKDNMkCoM0yYUGxEgoM0SCgzRIKDNEgoNiJhQZokFBmj6ZK2V7Qx0j3Nbk0uJA7lhypbIiFKEXzKKT9DyCk3ozZQZ4MFDFowVJiyBUmtkoZXMc17SQ5pBaRwIyKnGdGa5xUk09i/dEcaFdSxzet6Mo5PGfxz71yK1Pklg8Bf2rtq7h03XobSmqmSbYabmNxa8cWuHA9xB71rcWtym1g9lBAQBAeFbVsgjdLK4NawXcSpSbeEbKNGdaahBZbKc0w0tkrnbDbshafNb7XvO/ZdClRUFnqfQOFcJhZx5pazfXw8kcLi8+TB2u+iv0IfmNfF7jakvV/sa4KycREgoNiPRjCVi3g2wg5bHpsLHJv7NIwVJDIlSa2QKk1sxtEZFMIx55LZkm1JGe9Q4JmyN3OO+p7xVTT0WDptFqnd05aPQ+kLWXUyQUGxEwoM0SCgzRIKDNEgoM0ZuoM8goQyJUmDIFSa2RKkwZYWp7EC2eanJ3SNDwPeabH5H5KpeR7qked4/RTpxqeDx8zZaV40cJxiGc/wK6JragcNqN2zt9oa5nddKFLt6Dj1i9Pieepw7Sm11RYrHhwBBuCLgjiCucVSSAICo9ZmOumqDTNNo4D5w9p9t5PZkr9vTxHmPd+z1jGlR7drvS/RfycS91gSeG8qyll4PQTkoxcnsjnJZNpxceJXRjHlWDxdWq6s3N9QEMUfRDDxK1yl0Rdo0M96R7lYFpogVJrZEqTWyBWRrZAqTWyJUmtnV6Nava2u2X7Hkoj/MkuLjm1ubvkFWq3lOnpuylWuqcNN2WXgmqqggsZg6d3vmzf0j6rnVL+rL3dDnTu5y20N5imhdDURiPyDI9gWY6MBhb8Mx0K0RuKiec5M7e/r0HmL08HsVvpDq5qqa74B5dg9n0wOrePcrtO6jLR6HpLTjNGrpPuv9Pn9zjnsLSQ4EEGxB3EHkQrJ2otNZQCgzRIKDNEgVBmmLoTkXQjJgqTFsiVJgyJUmDOw1Uxl2IAjJsby7ssB4lVrt/wBs43G5JWrXmjc6+qYGmpZeLJXM7nsuf9MKOGS78l5HmLN95o2OpnHzU0Rp5Dd9IQ1vMxH0Phvb2ALXxCjyVOZdfqYXVPllnxLBVArBAUPpiwivqgf6rj3HePkV06XuI+m8KadnSa/4o5rFpdmO3tG3dxVqhHMsmvi1Xkocv/LT7mkCunmEfVSw33nIZdVqnLGhftaHN3pbH1lajoMiVJrZArI1sgVJrZArI1s+rCsLmq5WwwRl73ZAcBxJOQHUrGdSMFmRoq1I0480noXXodq4p6INknDZptxuRdjD7oOfafkuPXvJ1NI6I4VxeyqaR0R3KplIIAgCA1mLYBS1Y+/ha48HWs4fmG9ZwqSjsyzQu61D/HJr6HFYrqrYbmmmLeTZBtDsuN/irULx/mR26HtBJaVY580cliOguIQXvAZAOMRD79jR53yViNxTl1OxR4xaVPzY9dP12/U0M1O+M2exzSMw4Fp+a2pp7HShUjJZi0/Q8rqTZkXQjJglCMmCpMWz7cLwaoqnBkET3k5kA7I6udk0dqxlUjFZbKte6pUVmpJL6/IuPQTRIYdG5zyHTSgbZGTQPVb+65tev2j02PH8S4i7qSUdIrb7mg17f9hB/eW/6Uqs8M/yv0/dFaz99+hxGprEPJYk2O+6djmEcyPOHgVd4hDmpZ8CzdRzTz4H6AXBOWEBUmtTD/J1bZgN0zRf8Tdx+VlftpZjjwPd+zdxz2zp9Yv9GVjjUl3NbyF/iupbrRsw41UzVjDwX1PihZtEAcVuk8LJzKNN1JqKNqG2FhwVXOTvqKisIwVJiyBUmtkCsjWyJUmtn04ThctXMyCFu095sOQHFxPABYznGEeaRXq1I04uUtj9B6IaLw4bCI2AF7gPLSW3vd9G8guHXryqyy9jzNxcSrSy9uiN8tJXCAIAgCAIAgCA85oWvFntDhycAR81KbRlGUovMXg1tRo1RSb300R/KB4LNVZrZlmF/cw92b+Z8Uug2Hu/8cDsLgsvxFTxN64vdr85BmgeHj+Rftc5T+IqeJL4xdv8591NotQxG7KaO/Vt/FYOrN7s0T4hcz0lNm2jja0BrQABkAAB8AteSo228skhBVevqptBSRe3I9/6Ggf/AEXU4ZHvSl5f79C7ZLvNlf6tb/8AFaO39Q/5HK9ef4ZFu4/xM/Si86ccIDi9alIH0Yk4xPHwduKsWzxPB6H2bquN04eK+hQWJOvK7pu+S79FYgi3xGfNcy+R74dHuLue4LXWl0LXDqXdc36H1lajosgVka2RKk1sgVJrZEhZGtl46rdGBSUwnkb99UAHfm2M72t6E5ntXHvK3PLlWyPM8Rue0qcq2X1O4VM5wQBAEAQBAEAQBAEAQBAEAQBAEBROu7EPKV7IQd1PEAfxvJcflsfBdvh0MUm/FnTs44hnxPh1RUZlxSJ3CJr3n4WHis7+WKL8zZdvFIvXHMTZSU8tQ/KJpNuZ4DvK4lODnJRRy6cHOSiisv7W3/0o/wDEuj/T14nR/p68TrtZ9S1lCWk75HtDR2G5VK3WZln2dpyleKS2SeT871RvI/8AEfFeih7qN9y815+r+ptoGbLWjoqsnltnoqFPkpxj5EioMmQKk1sgVJrZErI1s3+geDfba6KNwuxh25Pwt327zYLTcVOSm2UL6t2VFtb7I/QwFty4Z5IygCAIAgCAIAgCAIAgCAIAgCAIDzqJmxsc9xs1gJcegFypSy8IlLOh+XNIcSNXVT1B/mvcR2X3fKy9NShyQUfA7lKHLFRLR1F4VaOoq3D0yIo+ob5zj8S0dxXL4lU1UPiUr+eqifPro0j2nNoI3ehZ9RbmfQZ8N/eFlw+jj+4/gbeH0f8A9H8Cql0zqFi6c48a2pdb+HES2Mc7He7vXIo0+SPmd3g9grWgs+9LV/b4FcObeUjm+3zXYTxDPkefnHmunH/2/c3RVI9OyBUmtkSsjWyBUmtkSpNbLU1KUI2amcjfdrG+J+i51/LaJ5/jM9Yw+JaK55wggCAIAgCAIAgCAIAgCAIAgCAICvtcekApqQUzD95VXBtwiHpHvNh8eSv2FHmnzPZfUuWdLmnzPZFH0dM6WRkbBd0jg1o5kmwXZlJRWWdZtRWWfoOrq4sAwqNu4ujZsxjLykzrlx/USSuCoyuazf8AuDjxjK4q/wC7FA1dS+eR8shLnyOLnHmSbruRSisI70IqKwj0/wCHy/0yo50Tzx8TosUonU80kL843EHrY7j3ixVCMuZZR623rRrUo1I7NHLllqm3vX+V10M/2vgeZcMcRx/7Z/c2hVU7zIFSa2RKkwZEqTWyBWRraLt1Qx2w6/tSyH4bI+i5N6/7nwPKcXf/AJGPJHbqocsIAgCAIAgCAIAgCAIAgCAIAgPGtqmQxvlkOyyNpc4ngBmpjFyeETFOTwj806X487EKuSoduafNiHssHoj6969FQpKlBRO9QpdnBROp1V4XFEZcUqiGw0txGT60hG+3MgfMqre1G8Uo7sr3k28Uo7s0Gmmk8mJ1Bld5sbLiFnst5n3jmT+y329BUo469S3bW6pRx16mrwilMs8MbRcySMaO9wC2zlyxbN83yxb8j9Gf8s03seH7LgdtI8528/E5vWZo0ZW/a4W3dGPvQOLB63aPBbLerjus9F7P8SVOX4eo9Ht6+HxKXq2bNSw+1+xC7FN5pNHTu6fJxCEvH+UfaVpOqyJUmtkChg0RKyNbRAqTW0XdqjdfDgPZlkHgfquTef5DyfGFi5+CO1VU5QQBAEAQBAEAQBAEAQBAEAQBAUzrd0w8s77BTu+7Yf8AqHD1njJl+Q49exdext+VdpLfodWyt8Lnl8Cs4wLi+V9/YuizpYNvjOOPqGRwMHk6eAWiiGV+L3+08neStNOkotyerfUwp0VFuT1b6mpAW0sJHbapsK8viDHkXbTgvPbk35n5Kne1OWljxKl/U5KOPEvqy4h54EICotaGhLYGiupxZjHtMzB6oc4Aub7tyN3C/JdOzuG26cuqPQ23FZVuzjV96LWH4rqmcKVYPYtESpNbRAhSYNESpNbREhSa2i19S9ZeKohJ3tc14HQix8AudfR1TPNccp4nGflgspUTghAEAQBAEAQBAEAQBAEAQBAVxrP06+zNdR0rvvni0rx/KacwPfPy7bK/Z2vO+eW31OhZ2vO+eW31KUO/Ndk7KQAUGWCVkMkjICgySL31TYF9lohK8WfU+f1DPUHeN/eFxb2rz1MLocDiNbnq8q2R3CpnPCA8K2lZNHJFILsla5rxza4WPipjJxaaJTaeUfnzGsPNNUSwONzG4i/MZg94IXXhPmWT6Va1lWoQqLqv+z4Csza0RKyMGiJCGtogQpMGjqtWmKfZq9gcbNmHk3dp9H5+K0XUOan6HK4rQ7W3bW61L2XIPHBAEAQBAEAQBAEAQBAEAQFcaxNYYpg6lo3AzHdJILERcwOb/BX7W05+9Pb6nRtLJz789vqUu9xcS5xJLiS4k3JJzJPErsbHaUcHvQ0Ms7xHDG6R5ya0Ent3ZDqsZTUVlsSlGCzJ4OjrNHo8NYHVpDp3i8VM032femcMh7ozVeNZ1XiG3j9ivCtKs8U9vH7HMyyF7i45nu+CsJYLkY4WDqdXei5xCpG2PuYSHTHgeTO+3wuq11X7OOm7K17cdjT03ex+gWtAAA3AZLhnmTKAIAgKo1tYSWTR1TR5so2XdHty+I8FftJ6cp7H2duVOlKi91r8GV+Qrh6FogQpMGiJCkwaIkKTW0GuIIINiDcHkUMJLJ+gdC8cFdSRy389o2ZhyeMz2HPvXHr0+zm0eHv7Z29Zx6br0N6tJSNccahFV9kc7ZkLA9gOTgb7m8yLHcs+R8vN0LX4Sq6HbpZjnD8vU2KwKoQBAEAQBAEAQBAfDjNA6phdC2Z8W3uc6OwdbiATl3LOEuV5xkzpzUJZxk4VuqCk4zzH9H7K5/UJ+COg+J1PBG0otWOGxEF0bpLe282+Astcr2q+pplxCtLrg0+k+m1LhrHUuGxx+Uyc5jWhjDlvt6bltpW06r5qj0LNvZVK756zeP1Kkqqh8z3SSOLnvN3OcbkldRJRWEduMFFYWxsNHMBmr52wwjPe93BjeLitdWrGnHmZhXrRow5pf9n6E0dwSKgp2U8I3N3ucc3uObndfoAFw6tR1JczPL160q03ORl2NRfaRSMO3JYukAt920cXcibiwzTs3y8z2HYS7PtHounmbJazSEAQGt0hwltZTSQO9YeafZcN7T8fqs6c3CWUWrK6lbVo1Y9N/NdSgq6kfDI+KQWcwkOHULrRkmso+j06kasFOGzPmIWQaIkKTBoiQpMGiJCkwaOi0G0lOH1G065iksJgN9hwcBzC0V6PaR8zm8Rslc08L3lt9i+IJmyNa9jg5rwC1wNwQd4IK5LTTwzxcouLcZLVFba2aJzJYKplxu2S4EghzTtNItlx3q3ayynE9Z7N1oyhOhL1x5PRm10J03bUhsFS4NlyY47hJ06O6cVhWoOOsdilxbgsqGatFZh1Xh/B3CrHnggCAIAgCAIAgCA0GkGl9HQgiWUF4yjZZz+8D0e9bqVvOpsizQtKtb3Vp49CptLNYVTXB0cd4YTm1p85w953LoF1KNpCnq9Wdy24fClq9WcZZWjoYN/opopUYjJsxtLYwfvJCPNb06u6BaK1eNNa7la5uoUI5lv0RdWHUdFgtNsl7Y25ve8jakd4k8gMlyZSqV5eJ56cq13U0Wf2OC0s1nPl2oqIFjTuMh9Mj3R6virlGzS1n8jrWvCVHvVdX4HSapsGMNK6qkB8pVHauc9gE2J7Tc94Wi8qc0+VbIp8VrqVTs47R+p3apnKCAIAgK/1m6MmVn2uFt3xj74Diz2hzI8OxW7arh8rPS8B4iqcvw9R6Pb18PiVSQr569oiQpMGiJCkwaIkKTBoiQpMGjt9ANNzREU9QSYCfNdvJiJ6ZlvQKpcW/P3o7nE4nwzt/wC5T976/wAlpY7h0eIUj4g4ESNvE8bwHZtcCMx9CqEJOEsnnrO5naXCqY2eq8uqKGq6d8Mjo3gtfG4hw4ghdRNNZR9Hp1I1YKcXlM7/AEO1g7GzBWklu4MlzI6P5jqqlW26xPM8T4FzZqW69Y/b7FmxyBwDmkEEXBBuCOYKpHk2mnhkkICAIDymqGMF3va0DMkgeKlJvYlRb2RpK/TXDoPTq4yeTCZD/gBst0barLaJahY3E9oP46fU5jFNbVO24p4XyHgX2YPhvKsQsZP3mXKfCKj99pHEY3rBr6q7fKeSYfVi8026uzVuna04dMnSo8Oo09cZfmcq4km53k5qyXsEoYS9wa0XLjYBG8B4Syzq8IwagpyJMRqWuI3iCA+Vcej3su1vZdVZ1KktKa+L0KNWrXnpQj8Xp8k9Tc4jrMLIxDh9O2FjRZpcASB0aNwWqNnl5qPJop8Jy+atLLOFxHEZql5knkc9x4uN+4ch2K5GMYrEUdanShTXLBYRttCdHnYhVNjt92zzpjyaOHaclqr1ezhnqaL25VvScuvQ/QkcYa0NaLBoAAHADcAuI3k8e228skhAQBAEBgi+48UCeCodYOiJpXmogbeF584D+W4/7TwXQt63MuV7nt+DcUVxHsqj762819ziCFaO60RIUmDREhSYNESFJg0RIQxaOn0R00nw87B+8hOcZOXMsPDsyWitbxqa9Tl33DKdzrtLx+51GlNLT4tD9soXB0sY++jyeWjm32h0z4KvTcqT5Z7FThtxVsan4e40i9n0T+z/AEK5Ktnq8nQaMaX1FAQ1p24uMbibflPqlaqlCM/U5d/wqjdrL0l4r9/EtnR7Sulrh92/Zf60b7Bw7ODh1HMXsqFSjKG54284bXtX31leK2/j4m8WooBAcTpxoDHX3mhIjn4k+jJ+Lkeqt0Lp09HsdOy4jKj3J6x+hTWKYVNSyGKeNzHDnkeoORHULqQqRmsxZ6SlVhVjzQeUfHZZmzAsgwLIMGbITgWUE4M2QnB7UlM+V7Y42lznkBrRmSVEpJLLIk4wi5S0SL/0J0bbh1MI9xkfZ07hxdbIe6Mh8eK4teq6ks9Dx19du4qc3RbHQLSUwgCAIAgCAhPC17Sx4Ba4WcDkQieDKE3CSlF4aKf030LfSOdNAC6A7zxMfQ+71XRo11LR7nuOFcXjcpU6mk/r/PkcYQrJ2miJCkwaIkKTFowQpMGiJCGLR6UtS+F4fG8sc3ItJBUNJrDNVSnGa5ZLKParr3TPL3gbTvSIFrnmRzUKCSwjOhilHk6fQ87oW85MskLSCCQRkRuI7FGMmMkmsM6zBdYtXT2bJaZg4P3O7nD63WidrCW2hw7vg1tV1h3X5bfI7fCdZNDNYSF0LvfF29zhw7bKtO0qLbU4Nfg1xT93vLy+x01Li1PKAY5o3A5Wc0qu4SW6ObOhUg8Si0YxPDqerYY52Mkb1tu6g5hTGcoPKFKrUpS5oPBXuN6q4yS6lqAwexLvA7HjeB2gq7TvX+ZfI7NDjMtqsc+a+xxuIaHTwX8pLT2HHy0fgbH5K1G4jLZP5HUp3tOp7ql8maGaHYNrg/hNx8VuTyXFqedkMsGbITgnHGXENaCSTYAbyTyChvAeEssufV1oZ9jb9oqB9+8ea3+k08PxHj8Fy7m453yx2PK8T4h2z7On7q/X+DuVUOQEAQBAEAQBAEBF7A4EEXB3EHiEJTaeUVrphq9N3T0Q3Zui5dWHl0V2lc9JHq+G8dTSp3Pwl9/uVvLEWktcCCNxB3EK6nk9Ommso8yFJDRghSYtESEMGjBCkxaMWQjABsgTcTJcowZOWSJWRrbIoYNBriDcGx6KSGsnuK6b+rJ+t37rHlj4Gt0YPeK+Rh1ZKc5Hntc4/VSopdAqUFsl8jwKkzwLIMCyE4PakpHzPbHG0uc42aALkqJSSWWYzlGEXKTwi49BdBG0dp6iz5yPNHqx9nN3X4deZcXLn3Y7HleI8Tdf+3T0j9f4O4VQ44QBAEAQBAEAQBAEAQHO6S6IU9cC4jYl4SNG/wDMPWC3U60oeh1LDi1a00WsfB/t4FVaQ6JVNESXt2mcJGXLbdfZ71ep1ozPYWfE7e6WIvD8Hv8Ayc+QtxfaMWUmODFlJjgjZDHBiykjBiyGOBZCMGLIRgWUjBiyEYFkGBZBgWQYOg0a0Qqa8gsbsR8ZHAhvd7XctNSvGG5Ru+IUbZd55fgv90Li0Y0Vp8PZaMbTz6cjrbR6D2R0C5lWtKo9Tyd5f1bmXe0XRG9WopBAEAQBAEAQBAEAQBAEAQGHNBFiLg53QlNrVHJY7q/pKm74wYXniz0SerMvhZWIXE476nZtOO3FHuz7y89/n98nA4xoBW09y1glaOMe8/pO9WoXMJb6HorbjdrW0b5X5/c5eaFzCWvaWkZgggjtBVhPJ1YtSWYvKPOykYMWUkYMWQxwYshGBZSRgxZBgWQjAsgwdBguhlbV2LIixp9eTzRbpfeVpncQj1OfccSt6G8svwWpYmj+rWmgs+oPl3jgd0YP4fW793RUql1KWkdDz91xutU7tPur9fn9jtmMDQA0AAZAbgFVOK228skhAQBAEAQBAEAQBAEAQBAEAQBAEAQHyV2GQVAtNCyTltNabdhOXcsozlHZm6lcVaLzTk16M5qu1cUMlyxr4z7riR8HX8VuVzNbnVpcfu4e81L1X2NJVaqv6VT+tv7FbVeeKL0PaT/nT+TNVPqxrB6D4ndpLfotiu4dS3H2htn7yaPH+zSv/wDV+s/sn4uHmZf1+08/l/JlurOu4+S/Wf2U/i4eZD4/aefy/k+6m1VzH+JOxvMAErF3i6Irz9oqS92DNzRaraZv8WWR/QbLB9Vqd3LoijU9oKz9yKX6nT4VoxR0tjDTsDh6xu936nXI7lonVnLdnMr39xX9+bx4bL5I261lMIAgCAIAgCAIAgCAIAgCAIAgCAIAgCAIAgCAIAgCAIAgCAIAgCAIAgCAIAgCAID/2Q==;" vertex="1" parent="1">
          <mxGeometry x="232.5" y="200" width="55" height="55" as="geometry" />
        </mxCell>
        <mxCell id="kRuqPWWYnygIAu690phn-5" value="" style="shape=image;verticalLabelPosition=bottom;labelBackgroundColor=#ffffff;verticalAlign=top;aspect=fixed;imageAspect=0;image=data:image/png,iVBORw0KGgoAAAANSUhEUgAAATYAAACjCAMAAAA3vsLfAAAAwFBMVEX///+QxT9GSD1FRj2NxDaOxDuQxUCTyT+NxDmRxz9CQT2Uyz94nT/5/PTx+OeLwzPK46eby1OYyUz0+u3w9+XQ5rKey1m624y83JHV6bre7seLvT/H4aKEwClLUD5BPz3h785nhD9zlEDn8taq0m6kz2N9pUFJTT5PVT+x1nvU6Lg/Oj293I/l8dKn0WrC35m12IOCrkBecT9QWD5TXz9XZD57oUBke0CHtj9ujEBrh0Baaj5mfj+OyTF1mECAqj8lluk1AAAKmklEQVR4nO2de3eiPBCHRRIIUIxcvKEU36Jr1Vbt1u22e2m//7d6CWhFLlairRvI74+ethw48pjMTCaTpFbjKpn0S38AFqU3zTvr0h+COTltAIHZ5C2uiO5HAAqCAEG7d+mPwo7sjoKESBCNhpf+OGzIGphhU9sIKSv70h/p35feMuLQQnDSkvuGw3IWSWihiTNa3Dfky58ilIIWgsNj59If7l+VdQezoUXgRv6lP+C/KL0pgVxooYkDHe4bkuq18UFoREDgvmFP9wuc9gRZPdVsXfqj/jtqTHG+UUuCa3PfEMpa5rjPPHDcN5Dw1jzsCdJCoPLjBpLoKEhNCMcNVQ5//RENNIGMG6rrG+zOgfD2Y3DVHDfog8JGbV8ITSvnG/QelVFLgBPuquUbhrRGbV8kbV6dcYO/OsGoJcDh9qwaTtVafjBmLwgOLIaXfqXPFwlvz9E/Y0Kg9L7BaR81Zi8KDnXLbOL80WdAI8JSaadUrdXRiQ4acGYpp1T1ATinJ0gL4vH9pV/y7GqZH2dvTwc3LVf464zP7T6zhWCJfIM/RV8CTSDFD2Upt2l0hU/0BGlwpSi30Zu04S0GIDNcQcEFJB1ovyUot6FOdGDY9f2BlAFu2u2MRnjaPvBcBJlOm9/TJjoQjsZL9gqlHLDRGnUd158eDGcYLrexO4WmpHbaVHxY5MWHo2SMjJfmdDbqjQ5HgRCzWW5Dn+jAkTN02gbJCektY7+noqWx6jirw61NYLPchrwsHTQAw1IPf+oihEck7g++gL1njaW2MTIO2bYtOMDYlKozphyzo2jy2FrCkBTGG4Y41raQACGARz0fIYbKbfQpJTTohjGX3jLd7QM2qQ1n7EKJ5pFYGV6YxtGyJdqgY0AQDccu2iEKUIYmqiXQ9XowuzCNo2WbFNgk6K4a5OaVC/bbFXKjjtuhyjuVHBsMe5O+BBmNCrsdEoz4BgW3kmPDxKrNdkYtLklwBWLihhxbSlatERi18NeNm4TAdV0cdk0pCF/tmk7R3AAzxSI02KCk1xw3+l0yDGLdXGm6bDYHq3YYfUjurKa3ObYMbKFZk3BH11cYou2Eu34/wgRbj2M7iK1bq3UwCMMOXSchSUCRYzsKm9shszaj8XjR8cNIkGM7CptDfqBAWAq4rTDHdiw2Mprf2Lolx3YctuBtG8tRW0IYw/HCrEAnbZwD2zhMMur2cLYcoSAIrgK2wi+X9qTxqWK7UwVPehZsAobTpuNbUWZ76XJsx2BzEUQ4GFpBc7EMml0jGDRwbB9iW7UtaxD+CZErNYLRKOTYjsBmBBaNOIJAENgc23HYOm7QM1uSSwSbtZqPeSc9CtsqeJDlOz3nnozoqzBKOE8A0tlNq1t3WOLYcrG5MWwCNpaO37AatrM0cBXybTTYwuzugqTEt9hIaZFkGqaJSH4Xuu2yZ3epsJG5BH1GChfcZYRNINlxRBLk0ma6lGouodzYoDmskel4E5t+rTbdm7/aFjhQ9NGyYxMQCNfr2U7w04onAxAOy/ysJVVVJmhemMbRosNGtqvYTh8ssbT7b5tM2ekz06V6aumxkYn5dsu2LL+Dt+WEEEf1fcNF5gQqxxYJuYppYhe3o2UMINqEwV5hTFU4UxVsgdOEEI5muj3FEOLxsEZmYiQs0FKrCDYiOCBPcUwprEPoGS49tCphk1yDTJKGU6T+Il61xbEd5Lapzao1Vu6p69vYwWadik0g5add3x4op69vYwibcY4lVnmrYAqqatjOJI6NShybIChK4Vs4NkF4kLSit3BsijRZP8kyx1YU27Wq/n6QC/VUji3AJtZV9edzkQbHsYXY6qI3eSjQ3ji2CFu97l0VaG4c2xabyrFxbO/i2KjEsVGJY6MSx0Yljo1KB7AdjFM/2jagqtgU7fk5P4WBJSM/navIkpaLTZb7uSN89rFp/f/qk5e+ltnkyHb+etPMAaf1/zy+SEomtuDL+Fn/nvd9sI5NFm6u1WBE+XilpFvGdouYxh3MmKoKbxW99euknsam9V8mnqjWf2Xn4tjGpshvP7ywrYheOvcT25DIT21qpMjf1uGtoiqmsMnK02P0XO/2SsjoqSxjI/3IU+sbqeqffrxlAGFva8Te3t685NYNrvf737Ep8sNvb3sx6/tgGpvcf6l78Rf3JjfS9tVhapPmsOhjI63/q67W69nYAosnxi+G30cCHLvY5KdbL/HmgYl7i94dGhn7XtmrTUdVrlK3xrDdTBIXRTX4Pva5sYutf51sL+Tdr6N3x9m7hUWP0G7mYsatETbtKuOiOE9EJ8xiU/rXO/Ozs0S3G2zDzGdssP33DlzcNawttpvYxXeA3o1WNmzz66fXbb8qiG3++PIOLolNnP9+Ws9Li019kTVN+iWKhbGJ4k1w5x9PzMIm3n77q/29qkcX568lw+aFL6RoL2pRbOI6DGW1h6zWJj4KclNvytIkbHjf+0K5sM2/bd7WK4ztd9iCEmPSLbYfmCw9aP29FoOBxLdkxMuxbR+UwkaKVXvuJB4N7rANvvTdT9CXt7ZucEMXr3/2M0alVca27ke2bW8ov8V2+/B30RsBRcqsR6owtsDsvyqa9DLJ9qT1P/2/KC8FWmVsZJj++riNaVPhrnedYdQqia2dHiXsBgJX8QdFF9dvOfldxrGJav057EbyW50kgt6xZS5ctKO1CNpL1rDTi/jL31Q19s/vz5lpY4ax3e7VV8nP3wNuW2wQdhqpJ8w2CyOVwJ4lkm119fZqg+c98xm1QfFXP4Mbs9iE/q3q/XjYtQVZe1t7W2wZZ1Tdj9+X8yla/6e6l1KLJ79l5fU6ljryJs9pbgxjm1xfaXuWJ3jf+mT3HxzPudn7x2Ep2sOPWAI3MdVChrhbqqr6R2IaW2J3eeUtPTui9R9iIKG73WteH8DkyhdZu7qO5hLm67ek/Qqa4/d5dDHbuLGLTciqtk1MXwG3Q3pqL/M4LE158dTAeL1qGd4yaI7reUD0IWcikR1sVMUMGLWG45w1yqRNqf/lVdcHzfH3UxZRInZamz6mWmEG8aG91rVDSxLkPGgCVtg5vskaSKcvzUuq+AIYxo6ZCGTfUR6fc05BzN55rz7tER3ng8beETpE1AfCnAcamwc21U45fuhkAXaPB6uFZy192WGRMTF+GF2NDJW+9LxIIojKcGT6cPSlDQ6CNjPHmBwW9bGRFALmgFFPkBb9IaUFhbKSdwzL6iqfb+KYO7PvCNmfHv7iNpPh7UfyPzX8xRIzuykWlXNg4cFpAmBZGk+QVv7Cg5OEAOvh7Ueylsqpe2QlBaPTX0suewXO6VRhST1BWkPaA8AzoAGzWWKjti99f8UGvYC0LFV4+5Gsc/gGhFalC28/UqN7YmoEgkVFjNq+/Okp8w2A2eztyXIWtL4BSOVJdFBoZtBEcexnb0+VPjCL9tQyJjqKy+4UM3G4zc48+6fKHx0fjGCpsp4greGR4W+5Ex0Umh0R/iJcdU+Qlj4QDs9FQ7yoQKKjuBqdQ6kRbHBPkCN/mgMOgmRZNFdczjhr3ICEu0olOopLb6XGDQixV6b29bIGe3PRELBZpvb1ipfbVDjRUVz3m7Q5MFkuU7uAiG9AiIe3RaW3TB7e0oh3Ty6uQP8DtkQUa+g5X5cAAAAASUVORK5CYII=;" vertex="1" parent="1">
          <mxGeometry x="201.57000000000002" y="288.87" width="118.43" height="62.27" as="geometry" />
        </mxCell>
        <mxCell id="kRuqPWWYnygIAu690phn-6" value="" style="shape=image;verticalLabelPosition=bottom;labelBackgroundColor=#ffffff;verticalAlign=top;aspect=fixed;imageAspect=0;image=data:image/png,iVBORw0KGgoAAAANSUhEUgAAAOEAAADhCAMAAAAJbSJIAAAAZlBMVEUxeMb///8qdcVmlNATbcLo7vcmdsUbcMN4odZpltEjcsRQh8ywxeUab8PW4fFdkc/J2e73+v2hu+E7fsizyudVjM6+0evd5/SSst3s8vmIrNp0ntV/ptimwOPK2e5HhMuQsNzC1e03+cCmAAAGoUlEQVR4nO2da7eiLBSAES8kRualNO36///kYJ3m1EkUA0Fd+5kv8641lc+7ERE2G+S8k9xSN0NzJXPTW/LHCL391zb2CA1sX6cCAWVevBUa5hHDti9RA5hFeathsWNzjt4rAdsVn4Y5WUL8nmCS/zUsPdsXpRmvfDeslibIFatXw5LZvp4RYOWv4Xp5EWzw1k/Dgti+lpEg/o/hbkm96Ct49zDMl3gTPmD53TBayoP+kyBqDPfLDSEP4p4b1ku9Cxtw7aBkySHkQUzQduGGW5RS2xcxKjRF4XJ70oYgRPOdspBj6X4AAAAAAAAAAAAAAAAAAAAAAAAAAAAAAAAAAAAAAAAAAAAAAAAAAAAAAAAAAAAAAAAAAAAAAABTIMCYNuA7tq9GK5gSz6NZXB+ra1lWx1XtxhfqeYzQcUSxVrp/K6AkyOp0v/lbiZzjb/anOsMjaIauTiLxD/FGubueD59urxzOZYy1VrK+1z3VSC4qgYvZJfXlvuOwrzXWkseRXsN1uyH2ws2Qr0n0ldI1Yojpquj/6BvxrAzZblD8ZmeI6fqL75mRIb1I9i9zNaSr775nNob0+OX3zMWQfBnB2RgqDCfmYYizniFaB/MwJNv+fy9iFobfdqN3ZmGIW16RpJmDIUkl/nki+r8wB0PaHcJkc6rc6HKJol1Ypee/I/MZGNJrl14eUkJ+pmgC/mrM/x6/nUGm0/Dgi2m/vo5PHP7XvWfi94mkbHuLx5Sxev98vugz5O+mHbRfYd3xiacgvggb6S0THoWDWVYVug27CNovcSXx61g4IO05T4ySsJiFofCl8Nx7WBP2wsMMDInoNsxkGgDOp2+IBb2U5Bkjps7pUDDMBB1NNa0zRhQML4JGGk5rheJ7QywynNhhRiMYLqaVCg1v0zr4bgRDx8BlD2CEvtTZT+p4RgVDJJyiqaZ06pbKqE28FDMlRZVR215oOKWjblViWLZ/9s7N2KisD5Vxadxh6CSriRyprdLT0O7Z4M1uEsdOqxiSvP3D/9mGnn1HFcPuZvqIo2vdUcUQeRJL28VKb2bJYJQMJYLIOaQXm52OkiEiNxlFJ7lZbKxqhh0Tin8ojp6lB6Sa4ZAlbv+IrTgqGiI2IM/EP9roc1QNkXeTV3SK2PyQXNkQkfMARQvjVXVDRAetdCeV4aaqwRDRvtHb3zAaVdRhiJjMWvAvh8hkS9ViiNhuWGZbbVBRj+Hg7MSruT5VkyEPYzwowzQ1pqjNEGFyHJJ7cjQ1b6zPsFnbTQfkgBlaPtRqyJ/+6Crd5fiaTUToNeRxxKHsAGBv5lbUbXhPtljL3ZBm2ql+w6bPCaQaa2EkiGMYciitJRqrkdXikQybQEYds/4PziaCOJoh/2ov64ljcjEQxBENJbZCmVgQH9WwGa92Ld8YWRAf2ZAPAro21Pj6dugJGd2Qh7Hjbsy0/YyQ8Q07pzkMPPRNGCIqbKh6f6cVI4bixJRy/M7UiCFiood/uhRD7AoMBXuKdWLGEIm2R03ccEAhiEDQ15wmbYhPF+m7SJRPPO37kBRJKPtyIGqlBgamipnsJ7kSF8KexkC2rWquvu/KhFH4tIimb8i7Q/H+mCdUlNGQ6FDoQcN+iyTtKcdChZmoxbTfD393lCSniIolSSycejvNxZCzqS6sTRITdBL5mZmK0rcrKCnSGHs8ls+3WtxsxgvXHRP9h1HVftC876nI09Uua7ZWUhTVbxsqWzAwZhtnZxdHbtLbwLNiNEMpblOf81Y2lNnFp45Fw6uZxXx7hhtD2QrWDA9m2qhFQ321zHqwZegay6ixY5iE5lKGrBj68Txyor42vI1U4rMd84b+yuyuLwXDIO5dxv4kOZnO9laZLw1I1PVu1MKhzIxnsyvuRiAszmWzoJI8trEjQWB4lO4LMPEuVV70vC4lmzQkkunPuldNw1YG/Qrmb7yZezzdNv6n6KE4r49x1jrF0UaGQs1L399UQ27/nqZOUpbt6mOZntb5+pSWKzfKeJA7Zqk+CEJkYKZfiUcNb8L/3Ot4D/04TZFkbZS5wrYoWbhhgqZWOkQvuHaQqcRTO7A9N3QiA4lElggipzHMlxtElt8NzU0AmOZe0LYx9JcaROL/GDr5dOpq6MS774G7GzrlEqPIHqmoD8NJFYDRhFc5r4ZTKgCjB++ZTPw07KsvOTPwbxWR/4ZOsWNLefQHLPqdKPg15GGMJlLkRg3MoteNxK+GjrNdeUzjeS3mCSjzVu9J0u+GTVGN1DWQDj4Smfu51P8PRdpbj+0ItoAAAAAASUVORK5CYII=;" vertex="1" parent="1">
          <mxGeometry x="227.71" y="380" width="66.14" height="66.14" as="geometry" />
        </mxCell>
      </root>
    </mxGraphModel>
  </diagram>
</mxfile>
